<svg width="655" height="373" viewBox="0 0 655 373" fill="none" xmlns="http://www.w3.org/2000/svg">
<rect width="655" height="373" fill="#F2F2F2"/>
<g clip-path="url(#clip0_3_2)">
<path d="M303.006 152.375C303.006 150.717 303.665 149.128 304.837 147.956C306.009 146.783 307.599 146.125 309.256 146.125H346.756C348.414 146.125 350.004 146.783 351.176 147.956C352.348 149.128 353.006 150.717 353.006 152.375V183.625C353.006 185.283 352.348 186.872 351.176 188.044C350.004 189.217 348.414 189.875 346.756 189.875H309.256C307.599 189.875 306.009 189.217 304.837 188.044C303.665 186.872 303.006 185.283 303.006 183.625V152.375V152.375ZM306.131 180.5V183.625C306.131 184.454 306.46 185.249 307.047 185.835C307.633 186.421 308.427 186.75 309.256 186.75H346.756C347.585 186.75 348.38 186.421 348.966 185.835C349.552 185.249 349.881 184.454 349.881 183.625V172.688L338.078 166.603C337.785 166.456 337.453 166.405 337.13 166.458C336.806 166.51 336.507 166.662 336.275 166.894L324.681 178.487L316.369 172.95C316.069 172.75 315.709 172.66 315.35 172.696C314.991 172.731 314.655 172.889 314.4 173.144L306.131 180.5ZM321.756 160.188C321.756 158.944 321.262 157.752 320.383 156.873C319.504 155.994 318.312 155.5 317.069 155.5C315.826 155.5 314.633 155.994 313.754 156.873C312.875 157.752 312.381 158.944 312.381 160.188C312.381 161.431 312.875 162.623 313.754 163.502C314.633 164.381 315.826 164.875 317.069 164.875C318.312 164.875 319.504 164.381 320.383 163.502C321.262 162.623 321.756 161.431 321.756 160.188Z" fill="#B1B1B1"/>
</g>
<path d="M266.426 218H265.193C265.12 217.645 264.993 217.334 264.81 217.065C264.631 216.797 264.413 216.571 264.154 216.389C263.899 216.204 263.616 216.064 263.304 215.972C262.992 215.879 262.668 215.832 262.33 215.832C261.713 215.832 261.155 215.988 260.654 216.3C260.157 216.611 259.761 217.07 259.466 217.677C259.174 218.283 259.028 219.027 259.028 219.909C259.028 220.791 259.174 221.535 259.466 222.141C259.761 222.748 260.157 223.207 260.654 223.518C261.155 223.83 261.713 223.986 262.33 223.986C262.668 223.986 262.992 223.939 263.304 223.847C263.616 223.754 263.899 223.616 264.154 223.434C264.413 223.248 264.631 223.021 264.81 222.753C264.993 222.481 265.12 222.17 265.193 221.818H266.426C266.333 222.339 266.164 222.804 265.919 223.215C265.674 223.626 265.369 223.976 265.004 224.264C264.64 224.549 264.23 224.766 263.776 224.915C263.326 225.065 262.843 225.139 262.33 225.139C261.461 225.139 260.689 224.927 260.013 224.503C259.337 224.079 258.805 223.475 258.417 222.693C258.029 221.911 257.835 220.983 257.835 219.909C257.835 218.835 258.029 217.907 258.417 217.125C258.805 216.343 259.337 215.74 260.013 215.315C260.689 214.891 261.461 214.679 262.33 214.679C262.843 214.679 263.326 214.754 263.776 214.903C264.23 215.052 264.64 215.271 265.004 215.559C265.369 215.844 265.674 216.192 265.919 216.603C266.164 217.011 266.333 217.476 266.426 218ZM269.433 220.406V225H268.259V214.818H269.433V218.557H269.532C269.711 218.162 269.98 217.849 270.338 217.617C270.699 217.382 271.179 217.264 271.779 217.264C272.3 217.264 272.755 217.369 273.146 217.577C273.538 217.783 273.841 218.099 274.056 218.527C274.275 218.951 274.384 219.491 274.384 220.148V225H273.211V220.227C273.211 219.621 273.054 219.152 272.739 218.82C272.427 218.486 271.995 218.318 271.441 218.318C271.057 218.318 270.712 218.399 270.407 218.562C270.106 218.724 269.867 218.961 269.691 219.273C269.519 219.584 269.433 219.962 269.433 220.406ZM279.633 225.159C278.944 225.159 278.339 224.995 277.819 224.667C277.301 224.339 276.897 223.88 276.605 223.29C276.317 222.7 276.173 222.01 276.173 221.222C276.173 220.426 276.317 219.732 276.605 219.138C276.897 218.545 277.301 218.085 277.819 217.756C278.339 217.428 278.944 217.264 279.633 217.264C280.323 217.264 280.926 217.428 281.443 217.756C281.963 218.085 282.368 218.545 282.656 219.138C282.948 219.732 283.093 220.426 283.093 221.222C283.093 222.01 282.948 222.7 282.656 223.29C282.368 223.88 281.963 224.339 281.443 224.667C280.926 224.995 280.323 225.159 279.633 225.159ZM279.633 224.105C280.157 224.105 280.588 223.971 280.926 223.702C281.264 223.434 281.514 223.081 281.676 222.643C281.839 222.206 281.92 221.732 281.92 221.222C281.92 220.711 281.839 220.236 281.676 219.795C281.514 219.354 281.264 218.998 280.926 218.726C280.588 218.454 280.157 218.318 279.633 218.318C279.109 218.318 278.679 218.454 278.341 218.726C278.002 218.998 277.752 219.354 277.59 219.795C277.427 220.236 277.346 220.711 277.346 221.222C277.346 221.732 277.427 222.206 277.59 222.643C277.752 223.081 278.002 223.434 278.341 223.702C278.679 223.971 279.109 224.105 279.633 224.105ZM287.987 225.159C287.297 225.159 286.692 224.995 286.172 224.667C285.655 224.339 285.251 223.88 284.959 223.29C284.671 222.7 284.526 222.01 284.526 221.222C284.526 220.426 284.671 219.732 284.959 219.138C285.251 218.545 285.655 218.085 286.172 217.756C286.692 217.428 287.297 217.264 287.987 217.264C288.676 217.264 289.279 217.428 289.796 217.756C290.317 218.085 290.721 218.545 291.009 219.138C291.301 219.732 291.447 220.426 291.447 221.222C291.447 222.01 291.301 222.7 291.009 223.29C290.721 223.88 290.317 224.339 289.796 224.667C289.279 224.995 288.676 225.159 287.987 225.159ZM287.987 224.105C288.51 224.105 288.941 223.971 289.279 223.702C289.617 223.434 289.868 223.081 290.03 222.643C290.192 222.206 290.274 221.732 290.274 221.222C290.274 220.711 290.192 220.236 290.03 219.795C289.868 219.354 289.617 218.998 289.279 218.726C288.941 218.454 288.51 218.318 287.987 218.318C287.463 218.318 287.032 218.454 286.694 218.726C286.356 218.998 286.106 219.354 285.943 219.795C285.781 220.236 285.7 220.711 285.7 221.222C285.7 221.732 285.781 222.206 285.943 222.643C286.106 223.081 286.356 223.434 286.694 223.702C287.032 223.971 287.463 224.105 287.987 224.105ZM298.647 219.074L297.593 219.372C297.527 219.196 297.429 219.026 297.3 218.86C297.174 218.691 297.001 218.552 296.783 218.442C296.564 218.333 296.284 218.278 295.942 218.278C295.475 218.278 295.086 218.386 294.774 218.602C294.466 218.814 294.312 219.084 294.312 219.412C294.312 219.704 294.418 219.934 294.63 220.103C294.842 220.272 295.174 220.413 295.624 220.526L296.758 220.804C297.441 220.97 297.949 221.223 298.284 221.565C298.619 221.903 298.786 222.339 298.786 222.872C298.786 223.31 298.66 223.701 298.408 224.045C298.16 224.39 297.812 224.662 297.364 224.861C296.917 225.06 296.397 225.159 295.803 225.159C295.024 225.159 294.38 224.99 293.869 224.652C293.359 224.314 293.036 223.82 292.9 223.17L294.013 222.892C294.12 223.303 294.32 223.611 294.615 223.817C294.913 224.022 295.303 224.125 295.783 224.125C296.33 224.125 296.764 224.009 297.086 223.777C297.411 223.542 297.573 223.26 297.573 222.932C297.573 222.667 297.48 222.445 297.295 222.266C297.109 222.083 296.824 221.947 296.44 221.858L295.167 221.56C294.468 221.394 293.954 221.137 293.626 220.789C293.301 220.438 293.138 219.999 293.138 219.472C293.138 219.041 293.259 218.66 293.501 218.328C293.747 217.997 294.08 217.737 294.501 217.548C294.925 217.359 295.406 217.264 295.942 217.264C296.698 217.264 297.291 217.43 297.722 217.761C298.156 218.093 298.465 218.53 298.647 219.074ZM303.754 225.159C303.018 225.159 302.384 224.997 301.85 224.672C301.32 224.344 300.91 223.886 300.622 223.3C300.337 222.71 300.194 222.024 300.194 221.241C300.194 220.459 300.337 219.77 300.622 219.173C300.91 218.573 301.311 218.106 301.825 217.771C302.342 217.433 302.945 217.264 303.635 217.264C304.032 217.264 304.425 217.33 304.813 217.463C305.201 217.596 305.554 217.811 305.872 218.109C306.19 218.404 306.444 218.795 306.633 219.283C306.822 219.77 306.916 220.37 306.916 221.082V221.58H301.03V220.565H305.723C305.723 220.134 305.637 219.75 305.464 219.412C305.295 219.074 305.053 218.807 304.738 218.612C304.427 218.416 304.059 218.318 303.635 218.318C303.167 218.318 302.763 218.434 302.422 218.666C302.084 218.895 301.823 219.193 301.641 219.561C301.459 219.929 301.368 220.323 301.368 220.744V221.42C301.368 221.997 301.467 222.486 301.666 222.887C301.868 223.285 302.148 223.588 302.506 223.797C302.864 224.002 303.28 224.105 303.754 224.105C304.062 224.105 304.341 224.062 304.589 223.976C304.841 223.886 305.058 223.754 305.241 223.578C305.423 223.399 305.564 223.177 305.663 222.912L306.797 223.23C306.677 223.615 306.477 223.953 306.195 224.244C305.913 224.533 305.565 224.758 305.151 224.92C304.737 225.08 304.271 225.159 303.754 225.159ZM312.638 225V217.364H313.812V225H312.638ZM313.235 216.091C313.006 216.091 312.809 216.013 312.643 215.857C312.481 215.701 312.4 215.514 312.4 215.295C312.4 215.077 312.481 214.889 312.643 214.734C312.809 214.578 313.006 214.5 313.235 214.5C313.464 214.5 313.659 214.578 313.822 214.734C313.987 214.889 314.07 215.077 314.07 215.295C314.07 215.514 313.987 215.701 313.822 215.857C313.659 216.013 313.464 216.091 313.235 216.091ZM315.961 225V217.364H317.094V218.557H317.194C317.353 218.149 317.609 217.833 317.964 217.607C318.319 217.379 318.745 217.264 319.242 217.264C319.746 217.264 320.165 217.379 320.5 217.607C320.838 217.833 321.101 218.149 321.29 218.557H321.37C321.565 218.162 321.859 217.849 322.25 217.617C322.641 217.382 323.11 217.264 323.657 217.264C324.339 217.264 324.898 217.478 325.332 217.906C325.766 218.33 325.983 218.991 325.983 219.889V225H324.81V219.889C324.81 219.326 324.656 218.923 324.348 218.681C324.039 218.439 323.676 218.318 323.259 218.318C322.722 218.318 322.306 218.481 322.011 218.805C321.716 219.127 321.569 219.535 321.569 220.028V225H320.375V219.77C320.375 219.336 320.234 218.986 319.953 218.721C319.671 218.452 319.308 218.318 318.864 218.318C318.559 218.318 318.274 218.399 318.009 218.562C317.747 218.724 317.535 218.95 317.373 219.238C317.213 219.523 317.134 219.853 317.134 220.227V225H315.961ZM330.376 225.179C329.892 225.179 329.453 225.088 329.058 224.906C328.664 224.72 328.351 224.453 328.119 224.105C327.887 223.754 327.771 223.33 327.771 222.832C327.771 222.395 327.857 222.04 328.029 221.768C328.201 221.493 328.432 221.278 328.72 221.122C329.009 220.966 329.327 220.85 329.675 220.774C330.026 220.695 330.379 220.632 330.734 220.585C331.198 220.526 331.574 220.481 331.862 220.451C332.154 220.418 332.366 220.363 332.499 220.287C332.634 220.211 332.702 220.078 332.702 219.889V219.849C332.702 219.359 332.568 218.978 332.3 218.706C332.035 218.434 331.632 218.298 331.092 218.298C330.531 218.298 330.092 218.421 329.774 218.666C329.456 218.911 329.232 219.173 329.103 219.452L327.989 219.054C328.188 218.59 328.453 218.229 328.785 217.97C329.12 217.708 329.484 217.526 329.879 217.423C330.276 217.317 330.667 217.264 331.052 217.264C331.297 217.264 331.579 217.294 331.897 217.354C332.219 217.41 332.528 217.528 332.827 217.707C333.128 217.886 333.379 218.156 333.577 218.517C333.776 218.878 333.876 219.362 333.876 219.969V225H332.702V223.966H332.643C332.563 224.132 332.431 224.309 332.245 224.498C332.059 224.687 331.813 224.848 331.504 224.98C331.196 225.113 330.82 225.179 330.376 225.179ZM330.555 224.125C331.019 224.125 331.41 224.034 331.728 223.852C332.049 223.669 332.291 223.434 332.454 223.146C332.62 222.857 332.702 222.554 332.702 222.236V221.162C332.653 221.222 332.543 221.276 332.374 221.326C332.209 221.372 332.016 221.414 331.798 221.45C331.582 221.483 331.372 221.513 331.166 221.54C330.964 221.563 330.8 221.583 330.674 221.599C330.369 221.639 330.084 221.704 329.819 221.793C329.557 221.879 329.345 222.01 329.183 222.186C329.023 222.358 328.944 222.594 328.944 222.892C328.944 223.3 329.095 223.608 329.396 223.817C329.701 224.022 330.087 224.125 330.555 224.125ZM339.1 228.023C338.533 228.023 338.046 227.95 337.638 227.804C337.23 227.661 336.891 227.473 336.619 227.237C336.35 227.005 336.137 226.757 335.977 226.491L336.912 225.835C337.018 225.974 337.152 226.134 337.315 226.312C337.477 226.495 337.699 226.652 337.981 226.785C338.266 226.921 338.639 226.989 339.1 226.989C339.716 226.989 340.225 226.839 340.626 226.541C341.027 226.243 341.227 225.776 341.227 225.139V223.588H341.128C341.042 223.727 340.919 223.9 340.76 224.105C340.604 224.307 340.379 224.488 340.084 224.647C339.792 224.803 339.398 224.881 338.901 224.881C338.284 224.881 337.731 224.735 337.24 224.443C336.753 224.152 336.367 223.727 336.082 223.17C335.8 222.614 335.659 221.937 335.659 221.142C335.659 220.36 335.797 219.679 336.072 219.099C336.347 218.515 336.73 218.065 337.22 217.746C337.711 217.425 338.278 217.264 338.921 217.264C339.418 217.264 339.812 217.347 340.104 217.513C340.399 217.675 340.624 217.861 340.78 218.07C340.939 218.275 341.062 218.444 341.148 218.577H341.267V217.364H342.401V225.219C342.401 225.875 342.252 226.409 341.953 226.82C341.658 227.234 341.261 227.537 340.76 227.729C340.263 227.925 339.709 228.023 339.1 228.023ZM339.06 223.827C339.53 223.827 339.928 223.719 340.253 223.504C340.578 223.288 340.825 222.978 340.994 222.574C341.163 222.17 341.247 221.686 341.247 221.122C341.247 220.572 341.164 220.086 340.999 219.665C340.833 219.245 340.588 218.915 340.263 218.676C339.938 218.437 339.537 218.318 339.06 218.318C338.563 218.318 338.148 218.444 337.817 218.696C337.489 218.948 337.242 219.286 337.076 219.71C336.914 220.134 336.833 220.605 336.833 221.122C336.833 221.652 336.915 222.121 337.081 222.529C337.25 222.933 337.499 223.252 337.827 223.484C338.158 223.712 338.569 223.827 339.06 223.827ZM347.75 225.159C347.014 225.159 346.38 224.997 345.846 224.672C345.316 224.344 344.906 223.886 344.618 223.3C344.333 222.71 344.191 222.024 344.191 221.241C344.191 220.459 344.333 219.77 344.618 219.173C344.906 218.573 345.307 218.106 345.821 217.771C346.338 217.433 346.941 217.264 347.631 217.264C348.029 217.264 348.421 217.33 348.809 217.463C349.197 217.596 349.55 217.811 349.868 218.109C350.186 218.404 350.44 218.795 350.629 219.283C350.818 219.77 350.912 220.37 350.912 221.082V221.58H345.026V220.565H349.719C349.719 220.134 349.633 219.75 349.46 219.412C349.291 219.074 349.049 218.807 348.735 218.612C348.423 218.416 348.055 218.318 347.631 218.318C347.164 218.318 346.759 218.434 346.418 218.666C346.08 218.895 345.82 219.193 345.637 219.561C345.455 219.929 345.364 220.323 345.364 220.744V221.42C345.364 221.997 345.463 222.486 345.662 222.887C345.864 223.285 346.144 223.588 346.502 223.797C346.86 224.002 347.276 224.105 347.75 224.105C348.058 224.105 348.337 224.062 348.585 223.976C348.837 223.886 349.054 223.754 349.237 223.578C349.419 223.399 349.56 223.177 349.659 222.912L350.793 223.23C350.673 223.615 350.473 223.953 350.191 224.244C349.91 224.533 349.561 224.758 349.147 224.92C348.733 225.08 348.267 225.159 347.75 225.159ZM359.955 217.364V218.358H355.998V217.364H359.955ZM357.151 215.534H358.325V222.812C358.325 223.144 358.373 223.393 358.469 223.558C358.568 223.721 358.694 223.83 358.847 223.886C359.003 223.939 359.167 223.966 359.339 223.966C359.468 223.966 359.574 223.959 359.657 223.946C359.74 223.929 359.806 223.916 359.856 223.906L360.095 224.96C360.015 224.99 359.904 225.02 359.762 225.05C359.619 225.083 359.438 225.099 359.22 225.099C358.888 225.099 358.563 225.028 358.245 224.886C357.93 224.743 357.669 224.526 357.46 224.234C357.254 223.943 357.151 223.575 357.151 223.131V215.534ZM364.741 225.159C364.051 225.159 363.446 224.995 362.926 224.667C362.409 224.339 362.005 223.88 361.713 223.29C361.425 222.7 361.28 222.01 361.28 221.222C361.28 220.426 361.425 219.732 361.713 219.138C362.005 218.545 362.409 218.085 362.926 217.756C363.446 217.428 364.051 217.264 364.741 217.264C365.43 217.264 366.033 217.428 366.55 217.756C367.071 218.085 367.475 218.545 367.763 219.138C368.055 219.732 368.201 220.426 368.201 221.222C368.201 222.01 368.055 222.7 367.763 223.29C367.475 223.88 367.071 224.339 366.55 224.667C366.033 224.995 365.43 225.159 364.741 225.159ZM364.741 224.105C365.264 224.105 365.695 223.971 366.033 223.702C366.371 223.434 366.622 223.081 366.784 222.643C366.946 222.206 367.028 221.732 367.028 221.222C367.028 220.711 366.946 220.236 366.784 219.795C366.622 219.354 366.371 218.998 366.033 218.726C365.695 218.454 365.264 218.318 364.741 218.318C364.217 218.318 363.786 218.454 363.448 218.726C363.11 218.998 362.86 219.354 362.697 219.795C362.535 220.236 362.454 220.711 362.454 221.222C362.454 221.732 362.535 222.206 362.697 222.643C362.86 223.081 363.11 223.434 363.448 223.702C363.786 223.971 364.217 224.105 364.741 224.105ZM377.131 225.159C376.395 225.159 375.761 224.997 375.227 224.672C374.697 224.344 374.287 223.886 373.999 223.3C373.714 222.71 373.571 222.024 373.571 221.241C373.571 220.459 373.714 219.77 373.999 219.173C374.287 218.573 374.688 218.106 375.202 217.771C375.719 217.433 376.322 217.264 377.012 217.264C377.409 217.264 377.802 217.33 378.19 217.463C378.578 217.596 378.931 217.811 379.249 218.109C379.567 218.404 379.821 218.795 380.01 219.283C380.199 219.77 380.293 220.37 380.293 221.082V221.58H374.407V220.565H379.1C379.1 220.134 379.014 219.75 378.841 219.412C378.672 219.074 378.43 218.807 378.115 218.612C377.804 218.416 377.436 218.318 377.012 218.318C376.544 218.318 376.14 218.434 375.799 218.666C375.461 218.895 375.2 219.193 375.018 219.561C374.836 219.929 374.745 220.323 374.745 220.744V221.42C374.745 221.997 374.844 222.486 375.043 222.887C375.245 223.285 375.525 223.588 375.883 223.797C376.241 224.002 376.657 224.105 377.131 224.105C377.439 224.105 377.718 224.062 377.966 223.976C378.218 223.886 378.435 223.754 378.618 223.578C378.8 223.399 378.941 223.177 379.04 222.912L380.174 223.23C380.054 223.615 379.854 223.953 379.572 224.244C379.29 224.533 378.942 224.758 378.528 224.92C378.114 225.08 377.648 225.159 377.131 225.159ZM384.961 225.159C384.325 225.159 383.763 224.998 383.276 224.677C382.789 224.352 382.408 223.895 382.132 223.305C381.857 222.711 381.72 222.01 381.72 221.202C381.72 220.4 381.857 219.704 382.132 219.114C382.408 218.524 382.79 218.068 383.281 217.746C383.771 217.425 384.338 217.264 384.981 217.264C385.478 217.264 385.871 217.347 386.159 217.513C386.451 217.675 386.673 217.861 386.826 218.07C386.981 218.275 387.102 218.444 387.189 218.577H387.288V214.818H388.461V225H387.328V223.827H387.189C387.102 223.966 386.98 224.142 386.821 224.354C386.662 224.562 386.435 224.75 386.14 224.915C385.845 225.078 385.452 225.159 384.961 225.159ZM385.12 224.105C385.591 224.105 385.989 223.982 386.314 223.737C386.638 223.489 386.885 223.146 387.054 222.708C387.223 222.267 387.308 221.759 387.308 221.182C387.308 220.612 387.225 220.113 387.059 219.685C386.894 219.254 386.648 218.92 386.324 218.681C385.999 218.439 385.598 218.318 385.12 218.318C384.623 218.318 384.209 218.446 383.877 218.701C383.549 218.953 383.302 219.296 383.137 219.73C382.974 220.161 382.893 220.645 382.893 221.182C382.893 221.725 382.976 222.219 383.142 222.663C383.311 223.104 383.559 223.455 383.887 223.717C384.219 223.976 384.63 224.105 385.12 224.105ZM390.773 225V217.364H391.946V225H390.773ZM391.37 216.091C391.141 216.091 390.944 216.013 390.778 215.857C390.616 215.701 390.534 215.514 390.534 215.295C390.534 215.077 390.616 214.889 390.778 214.734C390.944 214.578 391.141 214.5 391.37 214.5C391.598 214.5 391.794 214.578 391.956 214.734C392.122 214.889 392.205 215.077 392.205 215.295C392.205 215.514 392.122 215.701 391.956 215.857C391.794 216.013 391.598 216.091 391.37 216.091ZM397.416 217.364V218.358H393.459V217.364H397.416ZM394.612 215.534H395.786V222.812C395.786 223.144 395.834 223.393 395.93 223.558C396.029 223.721 396.155 223.83 396.308 223.886C396.463 223.939 396.628 223.966 396.8 223.966C396.929 223.966 397.035 223.959 397.118 223.946C397.201 223.929 397.267 223.916 397.317 223.906L397.556 224.96C397.476 224.99 397.365 225.02 397.222 225.05C397.08 225.083 396.899 225.099 396.681 225.099C396.349 225.099 396.024 225.028 395.706 224.886C395.391 224.743 395.129 224.526 394.921 224.234C394.715 223.943 394.612 223.575 394.612 223.131V215.534Z" fill="#8A8A8A"/>
<defs>
<clipPath id="clip0_3_2">
<rect width="50" height="50" fill="white" transform="translate(303 143)"/>
</clipPath>
</defs>
</svg>
